<svg xmlns="http://www.w3.org/2000/svg" version="1.1" xmlns:xlink="http://www.w3.org/1999/xlink" xmlns:svgjs="http://svgjs.dev/svgjs" width="1000" height="834" viewBox="0 0 1000 834"><g transform="matrix(1,0,0,1,-0.16863905325431006,-1.1800212765955962)"><svg viewBox="0 0 169 141" data-background-color="#ffffff" preserveAspectRatio="xMidYMid meet" height="834" width="1000" xmlns="http://www.w3.org/2000/svg" xmlns:xlink="http://www.w3.org/1999/xlink"><g id="tight-bounds" transform="matrix(1,0,0,1,0.028499999999979764,0.19949999999997203)"><svg viewBox="0 0 168.94297260273976 140.60052000000002" height="140.60052000000002" width="168.94297260273976"><g><svg viewBox="0 0 168.94297260273976 140.60052000000002" height="140.60052000000002" width="168.94297260273976"><g><svg viewBox="0 0 168.94297260273976 140.60052000000002" height="140.60052000000002" width="168.94297260273976"><g><path d="M0 140.601v-140.601h168.943v140.601z" fill="#ffffff" stroke="transparent" stroke-width="0" rx="0%" data-fill-palette-color="tertiary"></path><path d="M3.283 137.317v-134.034h162.377v134.034z" fill="#000000" stroke="transparent" stroke-width="0" rx="0%" data-fill-palette-color="quaternary"></path><path d="M9.85 130.751v-120.901h149.243v120.901z" fill="#ffffff" stroke="transparent" stroke-width="0" data-fill-palette-color="tertiary"></path></g><g transform="matrix(1,0,0,1,19.69974,19.69974)" id="textblocktransform"><svg viewBox="0 0 129.54349260273978 101.20104000000002" height="101.20104000000002" width="129.54349260273978" id="textblock"><g><svg viewBox="0 0 129.54349260273978 101.20104000000002" height="101.20104000000002" width="129.54349260273978"><g transform="matrix(1,0,0,1,0,0)"><svg width="129.54349260273978" viewBox="1.5 -32.5 42.04999923706055 32.849998474121094" height="101.20104000000002" data-palette-color="#ffffff"><path d="M38.6-2.9L43.55-2.35 43.5 0 30.1 0 29.8-1.6 34.1-3.15 33.8-21 34.5-29.25 24.25-0.8 19.9 0.35 9.35-28.85 10.3-21 9.85-2.85 14.05-2.35 14 0 1.8 0 1.5-1.6Q2.95-2.3 5.95-3.2L5.95-3.2 6.9-29.7 2.95-30.15 3-32.5 13.05-32.5 22.8-5.4 32.4-32.5 41.55-32.5 41.85-30.9Q40.6-30.3 38.15-29.55L38.15-29.55 38.6-2.9Z" opacity="1" transform="matrix(1,0,0,1,0,0)" fill="#000000" class="wordmark-text-0" data-fill-palette-color="quaternary" id="text-0"></path></svg></g></svg></g></svg></g></svg></g><g></g></svg></g><defs></defs></svg><rect width="168.94297260273976" height="140.60052000000002" fill="none" stroke="none" visibility="hidden"></rect></g></svg></g></svg>