<?xml version="1.0" encoding="UTF-8" standalone="no"?>
<!DOCTYPE svg PUBLIC "-//W3C//DTD SVG 1.1//EN" "http://www.w3.org/Graphics/SVG/1.1/DTD/svg11.dtd">
<svg width="100%" height="100%" viewBox="0 0 3840 2160" version="1.1" xmlns="http://www.w3.org/2000/svg" xmlns:xlink="http://www.w3.org/1999/xlink" xml:space="preserve" xmlns:serif="http://www.serif.com/" style="fill-rule:evenodd;clip-rule:evenodd;stroke-linejoin:round;stroke-miterlimit:2;">
    <g>
        <path d="M1618.69,1658.61L1945.86,1427.14L2004.62,1468.71L1686.56,1693.73L1686.56,1963.13L1618.69,2011.71L1618.69,1658.61Z" style="fill:url(#_Linear1);"/>
        <path d="M2079.14,1510.74L2137.9,1552.31L1817.39,1779.06L1817.39,1869.5L1749.52,1918.07L1749.52,1743.94L2079.14,1510.74Z" style="fill:url(#_Linear2);"/>
        <path d="M2248.94,2439.43L1936.61,2211.04L1993.15,2168.31L2316.81,2404.98L2316.81,2707.13L2248.94,2748.61L2248.94,2439.43Z" style="fill:url(#_Linear3);"/>
        <path d="M2054.1,2122.24L2110.81,2079.37L2447.65,2320.45L2447.65,2627.17L2379.78,2668.65L2379.78,2355.34L2054.1,2122.24Z" style="fill:url(#_Linear4);"/>
        <path d="M2447.65,1779.14L2379.78,1731.12L2379.78,1465.77L2135.51,1292.96L2194.27,1251.39L2447.65,1430.65L2447.65,1779.14Z" style="fill:url(#_Linear5);"/>
        <path d="M2081.97,1687.81L2140.39,1646L2454.45,1868.19L2454.45,2237.64L2386.57,2189.06L2386.57,1903.31L2081.97,1687.81Z" style="fill:url(#_Linear6);"/>
        <path d="M2255.74,1991.65L1949.46,1774.97L2007.88,1733.16L2323.61,1956.53L2323.61,2144L2255.74,2095.42L2255.74,1991.65Z" style="fill:url(#_Linear7);"/>
        <path d="M2316.81,1686.58L2248.94,1638.56L2248.94,1551.11L2009.79,1381.91L2068.55,1340.34L2316.81,1515.98L2316.81,1686.58Z" style="fill:url(#_Linear8);"/>
        <path d="M2195.86,2572.67L2195.86,2490.02L2172.21,2472.66L2171.44,2472.12L2128.04,2441.86L2070.74,2401.76L2002.83,2354.37L1945.53,2314.35L1877.71,2266.96L1877.71,2344.92L1945.53,2393.47L2002.83,2434.48L2070.74,2483.11L2128.04,2524.12L2195.86,2572.67Z" style="fill:url(#_Linear9);"/>
        <path d="M2195.86,2747.95L2195.86,2664.46L2128.04,2617.14L2070.74,2577.05L2002.83,2529.65L1945.53,2489.63L1877.71,2442.24L1877.71,2520.28L1945.53,2568.83L2011.36,2615.91L2070.74,2658.39L2128.04,2699.41L2195.86,2747.95Z" style="fill:url(#_Linear10);"/>
        <path d="M1749.52,2428.55L1749.52,2177.36L2063.6,1939.97L2121.74,1981.1L1817.39,2211.14L1817.39,2477.12L1749.52,2428.55Z" style="fill:url(#_Linear11);"/>
        <path d="M1618.69,2092.49L1947.02,1857.49L2005.67,1898.99L1686.56,2127.38L1686.56,2383.5L1618.69,2334.93L1618.69,2092.49Z" style="fill:url(#_Linear12);"/>
        <path d="M3381.31,2341.39L3054.14,2572.86L2995.38,2531.29L3313.44,2306.27L3313.44,2036.87L3381.31,1988.29L3381.31,2341.39Z" style="fill:url(#_Linear13);"/>
        <path d="M2920.86,2489.26L2862.1,2447.69L3182.61,2220.94L3182.61,2130.5L3250.48,2081.93L3250.48,2256.06L2920.86,2489.26Z" style="fill:url(#_Linear14);"/>
        <path d="M2751.06,1560.57L3063.39,1788.96L3006.85,1831.69L2683.19,1595.02L2683.19,1292.87L2751.06,1251.39L2751.06,1560.57Z" style="fill:url(#_Linear15);"/>
        <path d="M2945.9,1877.76L2889.19,1920.63L2552.35,1679.55L2552.35,1372.83L2620.22,1331.35L2620.22,1644.66L2945.9,1877.76Z" style="fill:url(#_Linear16);"/>
        <path d="M2552.35,2220.86L2620.22,2268.88L2620.22,2534.23L2864.49,2707.04L2805.73,2748.61L2552.35,2569.35L2552.35,2220.86Z" style="fill:url(#_Linear17);"/>
        <path d="M2918.03,2312.19L2859.61,2354L2545.55,2131.81L2545.55,1762.36L2613.43,1810.94L2613.43,2096.69L2918.03,2312.19Z" style="fill:url(#_Linear18);"/>
        <path d="M2744.26,2008.35L3050.54,2225.03L2992.12,2266.84L2676.39,2043.47L2676.39,1856L2744.26,1904.58L2744.26,2008.35Z" style="fill:url(#_Linear19);"/>
        <path d="M2683.19,2313.42L2751.06,2361.44L2751.06,2448.89L2990.21,2618.09L2931.45,2659.66L2683.19,2484.02L2683.19,2313.42Z" style="fill:url(#_Linear20);"/>
        <path d="M2804.14,1427.33L2804.14,1509.98L2827.79,1527.34L2828.56,1527.88L2871.96,1558.14L2929.26,1598.24L2997.17,1645.63L3054.47,1685.65L3122.29,1733.04L3122.29,1655.08L3054.47,1606.53L2997.17,1565.52L2929.26,1516.89L2871.96,1475.88L2804.14,1427.33Z" style="fill:url(#_Linear21);"/>
        <path d="M2804.14,1252.05L2804.14,1335.54L2871.96,1382.86L2929.26,1422.95L2997.17,1470.35L3054.47,1510.37L3122.29,1557.76L3122.29,1479.72L3054.47,1431.17L2988.64,1384.09L2929.26,1341.61L2871.96,1300.59L2804.14,1252.05Z" style="fill:url(#_Linear22);"/>
        <path d="M3250.48,1571.45L3250.48,1822.64L2936.4,2060.03L2878.26,2018.9L3182.61,1788.86L3182.61,1522.88L3250.48,1571.45Z" style="fill:url(#_Linear23);"/>
        <path d="M3381.31,1907.51L3052.98,2142.51L2994.33,2101.01L3313.44,1872.62L3313.44,1616.5L3381.31,1665.07L3381.31,1907.51Z" style="fill:url(#_Linear24);"/>
    </g>
    <defs>
        <linearGradient id="_Linear1" x1="0" y1="0" x2="1" y2="0" gradientUnits="userSpaceOnUse" gradientTransform="matrix(1329.97,1295.2,-1295.2,1329.97,1637.13,1570.25)"><stop offset="0" style="stop-color:rgb(232,38,168);stop-opacity:1"/><stop offset="1" style="stop-color:rgb(51,246,191);stop-opacity:1"/></linearGradient>
        <linearGradient id="_Linear2" x1="0" y1="0" x2="1" y2="0" gradientUnits="userSpaceOnUse" gradientTransform="matrix(1329.97,1295.2,-1295.2,1329.97,1703.92,1501.67)"><stop offset="0" style="stop-color:rgb(232,38,168);stop-opacity:1"/><stop offset="1" style="stop-color:rgb(51,246,191);stop-opacity:1"/></linearGradient>
        <linearGradient id="_Linear3" x1="0" y1="0" x2="1" y2="0" gradientUnits="userSpaceOnUse" gradientTransform="matrix(1329.97,1295.2,-1295.2,1329.97,1448.36,1764.1)"><stop offset="0" style="stop-color:rgb(232,38,168);stop-opacity:1"/><stop offset="1" style="stop-color:rgb(51,246,191);stop-opacity:1"/></linearGradient>
        <linearGradient id="_Linear4" x1="0" y1="0" x2="1" y2="0" gradientUnits="userSpaceOnUse" gradientTransform="matrix(1329.97,1295.2,-1295.2,1329.97,1553.15,1656.49)"><stop offset="0" style="stop-color:rgb(232,38,168);stop-opacity:1"/><stop offset="1" style="stop-color:rgb(51,246,191);stop-opacity:1"/></linearGradient>
        <linearGradient id="_Linear5" x1="0" y1="0" x2="1" y2="0" gradientUnits="userSpaceOnUse" gradientTransform="matrix(1329.97,1295.2,-1295.2,1329.97,2009.83,1187.56)"><stop offset="0" style="stop-color:rgb(232,38,168);stop-opacity:1"/><stop offset="1" style="stop-color:rgb(51,246,191);stop-opacity:1"/></linearGradient>
        <linearGradient id="_Linear6" x1="0" y1="0" x2="1" y2="0" gradientUnits="userSpaceOnUse" gradientTransform="matrix(1329.97,1295.2,-1295.2,1329.97,1789.34,1413.96)"><stop offset="0" style="stop-color:rgb(232,38,168);stop-opacity:1"/><stop offset="1" style="stop-color:rgb(51,246,191);stop-opacity:1"/></linearGradient>
        <linearGradient id="_Linear7" x1="0" y1="0" x2="1" y2="0" gradientUnits="userSpaceOnUse" gradientTransform="matrix(1329.97,1295.2,-1295.2,1329.97,1726.98,1477.99)"><stop offset="0" style="stop-color:rgb(232,38,168);stop-opacity:1"/><stop offset="1" style="stop-color:rgb(51,246,191);stop-opacity:1"/></linearGradient>
        <linearGradient id="_Linear8" x1="0" y1="0" x2="1" y2="0" gradientUnits="userSpaceOnUse" gradientTransform="matrix(1329.97,1295.2,-1295.2,1329.97,1947.95,1251.1)"><stop offset="0" style="stop-color:rgb(232,38,168);stop-opacity:1"/><stop offset="1" style="stop-color:rgb(51,246,191);stop-opacity:1"/></linearGradient>
        <linearGradient id="_Linear9" x1="0" y1="0" x2="1" y2="0" gradientUnits="userSpaceOnUse" gradientTransform="matrix(1329.97,1295.2,-1295.2,1329.97,1408.21,1805.33)"><stop offset="0" style="stop-color:rgb(232,38,168);stop-opacity:1"/><stop offset="1" style="stop-color:rgb(51,246,191);stop-opacity:1"/></linearGradient>
        <linearGradient id="_Linear10" x1="0" y1="0" x2="1" y2="0" gradientUnits="userSpaceOnUse" gradientTransform="matrix(1329.97,1295.2,-1295.2,1329.97,1320.79,1895.09)"><stop offset="0" style="stop-color:rgb(232,38,168);stop-opacity:1"/><stop offset="1" style="stop-color:rgb(51,246,191);stop-opacity:1"/></linearGradient>
        <linearGradient id="_Linear11" x1="0" y1="0" x2="1" y2="0" gradientUnits="userSpaceOnUse" gradientTransform="matrix(1329.97,1295.2,-1295.2,1329.97,1465.25,1746.75)"><stop offset="0" style="stop-color:rgb(232,38,168);stop-opacity:1"/><stop offset="1" style="stop-color:rgb(51,246,191);stop-opacity:1"/></linearGradient>
        <linearGradient id="_Linear12" x1="0" y1="0" x2="1" y2="0" gradientUnits="userSpaceOnUse" gradientTransform="matrix(1329.97,1295.2,-1295.2,1329.97,1449.08,1763.35)"><stop offset="0" style="stop-color:rgb(232,38,168);stop-opacity:1"/><stop offset="1" style="stop-color:rgb(51,246,191);stop-opacity:1"/></linearGradient>
        <linearGradient id="_Linear13" x1="0" y1="0" x2="1" y2="0" gradientUnits="userSpaceOnUse" gradientTransform="matrix(1329.97,1295.2,-1295.2,1329.97,2047.55,1148.82)"><stop offset="0" style="stop-color:rgb(232,38,168);stop-opacity:1"/><stop offset="1" style="stop-color:rgb(51,246,191);stop-opacity:1"/></linearGradient>
        <linearGradient id="_Linear14" x1="0" y1="0" x2="1" y2="0" gradientUnits="userSpaceOnUse" gradientTransform="matrix(1329.97,1295.2,-1295.2,1329.97,1980.76,1217.4)"><stop offset="0" style="stop-color:rgb(232,38,168);stop-opacity:1"/><stop offset="1" style="stop-color:rgb(51,246,191);stop-opacity:1"/></linearGradient>
        <linearGradient id="_Linear15" x1="0" y1="0" x2="1" y2="0" gradientUnits="userSpaceOnUse" gradientTransform="matrix(1329.97,1295.2,-1295.2,1329.97,2236.33,954.976)"><stop offset="0" style="stop-color:rgb(232,38,168);stop-opacity:1"/><stop offset="1" style="stop-color:rgb(51,246,191);stop-opacity:1"/></linearGradient>
        <linearGradient id="_Linear16" x1="0" y1="0" x2="1" y2="0" gradientUnits="userSpaceOnUse" gradientTransform="matrix(1329.97,1295.2,-1295.2,1329.97,2131.53,1062.58)"><stop offset="0" style="stop-color:rgb(232,38,168);stop-opacity:1"/><stop offset="1" style="stop-color:rgb(51,246,191);stop-opacity:1"/></linearGradient>
        <linearGradient id="_Linear17" x1="0" y1="0" x2="1" y2="0" gradientUnits="userSpaceOnUse" gradientTransform="matrix(1329.97,1295.2,-1295.2,1329.97,1674.86,1531.52)"><stop offset="0" style="stop-color:rgb(232,38,168);stop-opacity:1"/><stop offset="1" style="stop-color:rgb(51,246,191);stop-opacity:1"/></linearGradient>
        <linearGradient id="_Linear18" x1="0" y1="0" x2="1" y2="0" gradientUnits="userSpaceOnUse" gradientTransform="matrix(1329.97,1295.2,-1295.2,1329.97,1895.34,1305.11)"><stop offset="0" style="stop-color:rgb(232,38,168);stop-opacity:1"/><stop offset="1" style="stop-color:rgb(51,246,191);stop-opacity:1"/></linearGradient>
        <linearGradient id="_Linear19" x1="0" y1="0" x2="1" y2="0" gradientUnits="userSpaceOnUse" gradientTransform="matrix(1329.97,1295.2,-1295.2,1329.97,1957.7,1241.08)"><stop offset="0" style="stop-color:rgb(232,38,168);stop-opacity:1"/><stop offset="1" style="stop-color:rgb(51,246,191);stop-opacity:1"/></linearGradient>
        <linearGradient id="_Linear20" x1="0" y1="0" x2="1" y2="0" gradientUnits="userSpaceOnUse" gradientTransform="matrix(1329.97,1295.2,-1295.2,1329.97,1736.74,1467.98)"><stop offset="0" style="stop-color:rgb(232,38,168);stop-opacity:1"/><stop offset="1" style="stop-color:rgb(51,246,191);stop-opacity:1"/></linearGradient>
        <linearGradient id="_Linear21" x1="0" y1="0" x2="1" y2="0" gradientUnits="userSpaceOnUse" gradientTransform="matrix(1329.97,1295.2,-1295.2,1329.97,2276.48,913.747)"><stop offset="0" style="stop-color:rgb(232,38,168);stop-opacity:1"/><stop offset="1" style="stop-color:rgb(51,246,191);stop-opacity:1"/></linearGradient>
        <linearGradient id="_Linear22" x1="0" y1="0" x2="1" y2="0" gradientUnits="userSpaceOnUse" gradientTransform="matrix(1329.97,1295.2,-1295.2,1329.97,2363.9,823.98)"><stop offset="0" style="stop-color:rgb(232,38,168);stop-opacity:1"/><stop offset="1" style="stop-color:rgb(51,246,191);stop-opacity:1"/></linearGradient>
        <linearGradient id="_Linear23" x1="0" y1="0" x2="1" y2="0" gradientUnits="userSpaceOnUse" gradientTransform="matrix(1329.97,1295.2,-1295.2,1329.97,2219.43,972.325)"><stop offset="0" style="stop-color:rgb(232,38,168);stop-opacity:1"/><stop offset="1" style="stop-color:rgb(51,246,191);stop-opacity:1"/></linearGradient>
        <linearGradient id="_Linear24" x1="0" y1="0" x2="1" y2="0" gradientUnits="userSpaceOnUse" gradientTransform="matrix(1329.97,1295.2,-1295.2,1329.97,2235.6,955.719)"><stop offset="0" style="stop-color:rgb(232,38,168);stop-opacity:1"/><stop offset="1" style="stop-color:rgb(51,246,191);stop-opacity:1"/></linearGradient>
    </defs>
</svg>
